<svg id="_002-no_preservatives" data-name="002-no preservatives" xmlns="http://www.w3.org/2000/svg" width="512.002" height="512.002" viewBox="0 0 512.002 512.002">
  <path id="Path_78" data-name="Path 78" d="M256,512A256,256,0,0,0,512,256C512,114.508,397.505,0,256,0S0,114.5,0,256,114.5,512,256,512Zm0-497C388.89,15,497,123.113,497,256S388.89,497,256,497,15,388.889,15,256,123.112,15,256,15Z" fill="#4a5568"/>
  <path id="Path_79" data-name="Path 79" d="M374.626,363.655l.005.005L408.472,397.5a16.423,16.423,0,0,0,24.458-1.363c71.251-89.737,63.8-218.591-17.337-299.727S205.605,7.821,115.867,79.072A16.427,16.427,0,0,0,114.5,103.53Zm-101.382-122.6A39.791,39.791,0,0,0,286.6,230.614a40.143,40.143,0,0,0,15.091,11.238c7.683,26.874,19.7,41.916,32.675,60.33ZM125.194,90.82a210.456,210.456,0,0,1,279.791,16.2c75.743,75.743,82.706,196.028,16.2,279.793a1.416,1.416,0,0,1-2.1.084l-32.512-32.512a52.724,52.724,0,0,0-7.155-14.321c-56.816-80.624-68.3-87.164-68.3-152.52a7.5,7.5,0,0,0-15,0c0,15.16-.235,21.409,1.112,32.342a13.461,13.461,0,0,0-21.41.188,24.764,24.764,0,0,1-14.271,9.289L215.886,183.7V133.613a13.175,13.175,0,0,0-13.16-13.16,13.476,13.476,0,1,1,0-26.953H309.274a13.477,13.477,0,0,1,0,26.954,13.175,13.175,0,0,0-13.16,13.16v18.927a7.5,7.5,0,0,0,15,0V135.395A28.477,28.477,0,0,0,309.274,78.5H202.728a28.477,28.477,0,0,0-1.84,56.9V168.7L125.11,92.925a1.416,1.416,0,0,1,.084-2.105Z" fill="#4a5568"/>
  <path id="Path_80" data-name="Path 80" d="M256.119,481.783a224.625,224.625,0,0,0,140.018-48.854,16.426,16.426,0,0,0,1.363-24.457L103.531,114.5a16.429,16.429,0,0,0-24.458,1.364C7.822,205.6,15.275,334.457,96.41,415.592a225.38,225.38,0,0,0,159.709,66.191Zm-7.17-200.648c17.2,17.2,13.588,13.587,22.944,22.944a17.769,17.769,0,1,1-22.944-22.944ZM90.821,125.193a1.418,1.418,0,0,1,2.1-.085L197.815,230a128.867,128.867,0,0,1-20.637,46.79l-44.589,63.271c-24.291,34.468.393,82.107,42.585,82.107H238.5a7.5,7.5,0,1,0,0-15H175.174c-30.135,0-47.663-33.862-30.323-58.466l44.589-63.271a143.739,143.739,0,0,0,20.715-43.091l27.65,27.65a32.79,32.79,0,1,0,45.234,45.233l80.572,80.572a36.45,36.45,0,0,1-26.782,11.373H273.5a7.5,7.5,0,0,0,0,15h63.327A51.2,51.2,0,0,0,374.215,406.4l12.679,12.679a1.415,1.415,0,0,1-.085,2.1c-83.766,66.508-204.051,59.544-279.791-16.2s-82.706-196.027-16.2-279.792Z" fill="#4a5568"/>
  <path id="Path_81" data-name="Path 81" d="M206.833,333.789A25.167,25.167,0,1,0,232,358.956a25.195,25.195,0,0,0-25.167-25.167Zm0,35.333A10.167,10.167,0,1,1,217,358.956a10.178,10.178,0,0,1-10.167,10.166Z" fill="#4a5568"/>
  <path id="Path_82" data-name="Path 82" d="M279.056,359.606h1.166a7.5,7.5,0,0,0,0-15h-1.166a7.5,7.5,0,0,0,0,15Z" fill="#4a5568"/>
</svg>
