<svg id="_003-non_toxic" data-name="003-non toxic" xmlns="http://www.w3.org/2000/svg" width="512.002" height="512.002" viewBox="0 0 512.002 512.002">
  <path id="Path_83" data-name="Path 83" d="M441.038,79.134c3.875-19.992,7.942-35.894,10.763-45.983a13.3,13.3,0,0,0-16.4-16.4A603.829,603.829,0,0,1,376.21,29.936a256.312,256.312,0,0,0-240.416,0A603.761,603.761,0,0,1,76.6,16.756a13.3,13.3,0,0,0-16.4,16.4c2.821,10.088,6.888,25.99,10.763,45.982A254.438,254.438,0,0,0,0,256C0,397.492,114.5,512,256,512c141.779,0,256-114.787,256-256A254.449,254.449,0,0,0,441.038,79.134Zm49.9,122.808H475.142a226.456,226.456,0,0,0-40.43-83.705q1.335-10.227,3.016-20.525A239.1,239.1,0,0,1,490.936,201.942Zm-31.273,0H393.855a88.493,88.493,0,0,0,38.291-61.5A211.449,211.449,0,0,1,459.663,201.942ZM436.558,32C409.95,129.481,427.3,148.33,397.443,179.414c-25.124,26.026-68.159,32.161-101.64,3.947l15.249-15.249c14.061,11.42,30,15.99,45.867,14.557a7.5,7.5,0,0,0-1.348-14.94c-11.671,1.052-23.3-2.194-33.849-10.288l19.693-19.693c11.6,9.042,24.732,12.67,37.732,11.5a7.5,7.5,0,0,0-1.348-14.94,37.511,37.511,0,0,1-25.663-7.279l19.387-19.387a39.065,39.065,0,0,0,26.528,7.381,7.5,7.5,0,1,0-1.348-14.939,23.953,23.953,0,0,1-14.347-3.274l21.883-21.883a7.5,7.5,0,0,0-10.607-10.606L371.75,86.2a23.942,23.942,0,0,1-3.275-14.346,7.5,7.5,0,0,0-14.94-1.351,39.059,39.059,0,0,0,7.38,26.531l-19.387,19.387a37.519,37.519,0,0,1-7.28-25.663,7.5,7.5,0,0,0-14.94-1.349c-1.184,13.106,2.523,26.223,11.5,37.733l-19.693,19.693c-8.032-10.462-11.351-22.073-10.288-33.849a7.5,7.5,0,0,0-14.94-1.348c-1.444,16.008,3.238,31.932,14.556,45.867l-15.249,15.249c-41.138-48.822-9.054-116.192,47.78-121.816A646.045,646.045,0,0,0,436.558,32ZM295.633,201.942H277.22L285.166,194a100.012,100.012,0,0,0,10.467,7.946Zm-21.078-18.548-18.548,18.548H256l-18.548-18.548A95.331,95.331,0,0,0,256,151.184a95.068,95.068,0,0,0,18.552,32.21ZM256,15a241.814,241.814,0,0,1,93.726,18.926q-9.176,1.188-18.228,2.084a89.887,89.887,0,0,0-14.538,2.661,225.56,225.56,0,0,0-42.867-7.628A7.5,7.5,0,1,0,272.907,46c6.947.551,13.865,1.447,20.709,2.679A88.6,88.6,0,0,0,256,96.633a88.67,88.67,0,0,0-37.615-47.958c6.843-1.231,13.761-2.127,20.708-2.679a7.5,7.5,0,1,0-1.187-14.953,225.642,225.642,0,0,0-42.866,7.628c-10.23-2.755-13.441-2.243-32.765-4.745A241.8,241.8,0,0,1,256,15ZM179.027,50.937c57.1,5.65,88.766,73.171,47.781,121.816L211.559,157.5c11.318-13.937,16-29.861,14.556-45.867a7.5,7.5,0,0,0-14.94,1.348c1.061,11.753-2.242,23.367-10.287,33.849l-19.693-19.693c8.961-11.49,12.683-24.605,11.5-37.733a7.5,7.5,0,0,0-14.94,1.349,37.507,37.507,0,0,1-7.28,25.663L151.086,97.033a39.064,39.064,0,0,0,7.38-26.531,7.5,7.5,0,0,0-14.94,1.351A23.955,23.955,0,0,1,140.252,86.2L118.37,64.316a7.5,7.5,0,0,0-10.607,10.606l21.883,21.883a23.952,23.952,0,0,1-14.347,3.274,7.5,7.5,0,1,0-1.348,14.939,39.039,39.039,0,0,0,26.528-7.38l19.387,19.386A37.517,37.517,0,0,1,134.2,134.3a7.5,7.5,0,1,0-1.348,14.94c13.152,1.185,26.244-2.539,37.732-11.5L190.28,157.44c-10.464,8.032-22.073,11.35-33.849,10.287a7.5,7.5,0,1,0-1.348,14.94c15.765,1.423,31.719-3.068,45.867-14.557L216.2,183.36c-33.764,28.447-77.492,21.906-102.351-4.692C84.915,147.824,102.017,129.35,75.444,32a646.24,646.24,0,0,0,103.583,18.94Zm55.756,151.005H216.37A104.042,104.042,0,0,0,226.837,194Zm-116.636,0H52.34a211.45,211.45,0,0,1,27.517-61.5A88.486,88.486,0,0,0,118.147,201.942ZM74.275,97.712Q75.961,108,77.291,118.237a226.456,226.456,0,0,0-40.43,83.705h-15.8A239.113,239.113,0,0,1,74.275,97.712ZM256,497A240.12,240.12,0,0,1,91.014,431.5h23.119a225.628,225.628,0,0,0,283.737,0h23.118A240.12,240.12,0,0,1,256,497Zm179.614-80.5H273.5a7.5,7.5,0,0,0,0,15h99.057a210.664,210.664,0,0,1-233.113,0H238.5a7.5,7.5,0,0,0,0-15H76.387A240.008,240.008,0,0,1,15,256a243.55,243.55,0,0,1,3.167-39.059H493.836A243.889,243.889,0,0,1,497,256,240.026,240.026,0,0,1,435.615,416.5Z" fill="#4a5568"/>
  <path id="Path_84" data-name="Path 84" d="M256,307.873c17.073,0,30.963-17.018,30.963-37.936S273.074,232,256,232s-30.962,17.018-30.962,37.936S238.929,307.873,256,307.873ZM256,247c8.652,0,15.963,10.5,15.963,22.936S264.653,292.873,256,292.873s-15.962-10.5-15.962-22.936S247.349,247,256,247Z" fill="#4a5568"/>
  <path id="Path_85" data-name="Path 85" d="M308.892,263.744l27.96,40.864a7.5,7.5,0,0,0,13.689-4.235V239.5a7.5,7.5,0,0,0-15,0v36.628l-27.96-40.864a7.5,7.5,0,0,0-13.689,4.235v60.872a7.5,7.5,0,0,0,15,0Z" fill="#4a5568"/>
  <path id="Path_86" data-name="Path 86" d="M168.962,307.873a7.5,7.5,0,0,0,7.5-7.5V263.745l27.96,40.864a7.5,7.5,0,0,0,13.689-4.235V239.5a7.5,7.5,0,0,0-15,0V276.13l-27.96-40.864a7.5,7.5,0,0,0-13.689,4.235v60.872a7.5,7.5,0,0,0,7.5,7.5Z" fill="#4a5568"/>
  <path id="Path_87" data-name="Path 87" d="M314.7,323.3a7.5,7.5,0,0,0-7.5,7.5v60.872a7.5,7.5,0,0,0,15,0V330.8A7.5,7.5,0,0,0,314.7,323.3Z" fill="#4a5568"/>
  <path id="Path_88" data-name="Path 88" d="M214.663,323.3c-17.073,0-30.963,17.018-30.963,37.936s13.89,37.936,30.963,37.936,30.963-17.018,30.963-37.936S231.736,323.3,214.663,323.3Zm0,60.871c-8.652,0-15.963-10.5-15.963-22.936s7.311-22.936,15.963-22.936,15.963,10.5,15.963,22.936S223.315,384.172,214.663,384.172Z" fill="#4a5568"/>
  <path id="Path_89" data-name="Path 89" d="M186.1,330.8a7.5,7.5,0,0,0-7.5-7.5H131a7.5,7.5,0,1,0,0,15h16.3v53.372a7.5,7.5,0,0,0,15,0V338.3h16.3A7.5,7.5,0,0,0,186.1,330.8Z" fill="#4a5568"/>
  <path id="Path_90" data-name="Path 90" d="M296.73,324.555a7.5,7.5,0,0,0-10.4,2.093l-13.989,21.041-13.989-21.041a7.5,7.5,0,0,0-12.492,8.305l17.474,26.283-17.474,26.283a7.5,7.5,0,0,0,12.492,8.305l13.989-21.041,13.989,21.041a7.5,7.5,0,0,0,12.492-8.305L281.35,361.236l17.474-26.283a7.5,7.5,0,0,0-2.094-10.4Z" fill="#4a5568"/>
  <path id="Path_91" data-name="Path 91" d="M384.211,370.354a7.5,7.5,0,0,0-9.986,3.573c-3.035,6.415-7.979,10.245-13.225,10.245-8.652,0-15.963-10.5-15.963-22.936S352.348,338.3,361,338.3c5.243,0,10.187,3.834,13.223,10.256a7.5,7.5,0,0,0,13.56-6.412C382.287,330.521,372.024,323.3,361,323.3c-17.073,0-30.963,17.018-30.963,37.936s13.89,37.936,30.963,37.936c11.026,0,21.289-7.215,26.783-18.831a7.5,7.5,0,0,0-3.572-9.987Z" fill="#4a5568"/>
</svg>
