<svg id="_020-ecologic" data-name="020-ecologic" xmlns="http://www.w3.org/2000/svg" width="512.002" height="512.002" viewBox="0 0 512.002 512.002">
  <path id="Path_92" data-name="Path 92" d="M256,0C114.509,0,0,114.5,0,256S114.5,512,256,512s256-114.5,256-256A256,256,0,0,0,256,0Zm0,497C123.112,497,15,388.889,15,256S123.112,15,256,15,497,123.113,497,256,388.89,497,256,497Z" fill="#4a5568"/>
  <path id="Path_93" data-name="Path 93" d="M256,30.318A225.556,225.556,0,0,0,30.319,256c0,118.076,90.913,215.7,207.588,224.959a7.5,7.5,0,0,0,1.187-14.953C130.435,457.382,45.319,365.137,45.319,256,45.319,139.83,139.831,45.318,256,45.318S466.684,139.83,466.684,256c0,109.136-85.116,201.382-193.776,210.006a7.5,7.5,0,0,0,.586,14.977q.3,0,.6-.024C390.948,471.686,481.685,373.883,481.685,256A225.683,225.683,0,0,0,256,30.318Z" fill="#4a5568"/>
  <path id="Path_94" data-name="Path 94" d="M371.52,298.594a7.5,7.5,0,1,0-14.73-2.827c-8.271,43.093-43.119,76.821-93.288,80.023v-32.8c23.621-1.913,43-12.248,56.455-28.372A7.5,7.5,0,0,0,308.44,305c-10.55,12.642-25.738,21.068-44.938,22.928V286.8c19.537-1.895,35.223-10.658,46.1-23.689a7.5,7.5,0,1,0-11.517-9.61c-8.139,9.755-19.776,16.43-34.579,18.219V231.16c13.313-1.773,24.17-7.928,31.918-17.212a7.5,7.5,0,1,0-11.515-9.611A33.967,33.967,0,0,1,263.5,216V172.6a7.5,7.5,0,0,0-15,0V216a33.962,33.962,0,0,1-20.4-11.658,7.5,7.5,0,1,0-11.515,9.611c7.744,9.28,18.6,15.438,31.916,17.212v40.562c-14.8-1.789-26.44-8.466-34.577-18.218a7.5,7.5,0,0,0-11.517,9.61c10.893,13.052,26.589,21.8,46.1,23.689v41.129c-19.2-1.86-34.384-10.283-44.935-22.928a7.5,7.5,0,1,0-11.517,9.61c13.43,16.1,32.79,26.456,56.452,28.372v32.8c-44.944-2.87-77.687-30.411-89.968-67.282a98.046,98.046,0,0,1,17.352-93.626,835.454,835.454,0,0,0,80.049-116.5.143.143,0,0,1,.155.045,836.185,836.185,0,0,0,80.03,116.452,98.418,98.418,0,0,1,21.468,48.362,7.5,7.5,0,1,0,14.847-2.129,113.406,113.406,0,0,0-24.716-55.744,820.647,820.647,0,0,1-78.559-114.3,15.1,15.1,0,0,0-26.314,0,820.6,820.6,0,0,1-78.561,114.3,112.969,112.969,0,0,0-19.983,107.876c14.076,42.262,51.94,74.614,104.2,77.569v46.327a7.5,7.5,0,1,0,15,0V390.816c57.248-3.238,98.338-41.8,108.015-92.222Z" fill="#4a5568"/>
</svg>
