<svg xmlns="http://www.w3.org/2000/svg" width="512.002" height="512.002" viewBox="0 0 512.002 512.002">
  <g id="Group_16" data-name="Group 16" transform="translate(-3921.999 -3930.999)">
    <g id="_030-no_syntethic_colors" data-name="030-no syntethic colors" transform="translate(3922 3931)">
      <path id="Path_74" data-name="Path 74" d="M437.02,74.98c-99.975-99.975-262.065-99.975-362.04,0s-99.975,262.065,0,362.04,262.065,99.975,362.04,0,99.975-262.065,0-362.04ZM85.588,85.587C177.636-6.467,326.155-8.775,421.019,80.374L248.98,252.413V209.785h14.414a26.472,26.472,0,0,0,26.442-26.442V160.788a26.472,26.472,0,0,0-26.442-26.442H253.366V91.794a35.021,35.021,0,1,0-70.042,0v42.552H173.295a26.471,26.471,0,0,0-26.441,26.442v22.555A26.471,26.471,0,0,0,173.3,209.785h14.95v34.88c0,9.7,15,9.7,15,0v-34.88h30.734V322.868H203.245V284.561c0-9.7-15-9.7-15,0v28.586L80.374,421.019C-8.776,326.154-6.467,177.635,85.588,85.587Zm87.708,109.2a11.454,11.454,0,0,1-11.441-11.442V160.788A11.455,11.455,0,0,1,173.3,149.346h90.1a11.454,11.454,0,0,1,11.442,11.442v22.555A11.455,11.455,0,0,1,263.4,194.785Zm65.07-60.439H198.325V91.794a20.021,20.021,0,0,1,40.042,0v42.552ZM233.98,395.787a84.278,84.278,0,0,1-11.265,42.071,4.736,4.736,0,0,1-8.2,0,84.3,84.3,0,0,1-11.266-42.07V337.869h30.734v57.918Zm192.432,30.626c-92.048,92.054-240.567,94.362-335.431,5.213l97.265-97.265v61.425q0,3.258.214,6.5t.639,6.457q.213,1.607.477,3.2.3,1.771.655,3.528a99.279,99.279,0,0,0,11.288,29.873,19.838,19.838,0,0,0,5.1,5.841c.126.1.258.184.386.277.215.157.427.317.648.465a19.8,19.8,0,0,0,27.359-5.453q.366-.551.7-1.13a99.313,99.313,0,0,0,13.273-49.566V273.624L431.626,90.981c89.15,94.865,86.841,243.384-5.214,335.432Z" fill="#4a5568"/>
      <path id="Path_75" data-name="Path 75" d="M340.132,288.163c0-18.626-21.521-41.451-23.976-43.993q-5.4-4.579-10.791,0c-2.454,2.542-23.977,25.366-23.977,43.993a29.372,29.372,0,0,0,58.744,0Zm-29.371,14.219a14.312,14.312,0,0,1-14.372-14.219c0-7.461,7.47-19,14.377-27.46,6.9,8.442,14.366,19.972,14.366,27.46A14.312,14.312,0,0,1,310.761,302.382Z" fill="#4a5568"/>
      <path id="Path_76" data-name="Path 76" d="M382.369,380.218a7.5,7.5,0,0,0-9.452,4.811,22.006,22.006,0,0,1-42.894-6.685c0-12.409,12.985-30.434,21.957-41.021a160.281,160.281,0,0,1,11.8,15.724c5.288,8.129,17.861-.054,12.572-8.182a179.477,179.477,0,0,0-18.96-24,7.5,7.5,0,0,0-10.793,0A180.911,180.911,0,0,0,331.147,339.7c-10.7,15.03-16.129,28.03-16.129,38.638a37.005,37.005,0,0,0,72.158,11.326,7.5,7.5,0,0,0-4.812-9.452Z" fill="#4a5568"/>
    </g>
    <path id="Path_77" data-name="Path 77" d="M256,30.318A225.556,225.556,0,0,0,30.319,256c0,118.076,90.913,215.7,207.588,224.959a7.5,7.5,0,0,0,1.187-14.953C130.435,457.382,45.319,365.137,45.319,256,45.319,139.83,139.831,45.318,256,45.318S466.684,139.83,466.684,256c0,109.136-85.116,201.382-193.776,210.006a7.5,7.5,0,0,0,.586,14.977q.3,0,.6-.024C390.948,471.686,481.685,373.883,481.685,256,481.685,131.359,380.643,30.317,256,30.318Z" transform="translate(3922 3931)" fill="#4a5568"/>
  </g>
</svg>
