<svg xmlns="http://www.w3.org/2000/svg" width="14.869" height="32.293" viewBox="0 0 14.869 32.293">
  <g id="Layer_2" data-name="Layer 2" transform="translate(0 -0.002)">
    <g id="Layer_1" data-name="Layer 1" transform="translate(0 0.002)">
      <path id="Path_41" data-name="Path 41" d="M3.146,32.3V16.351L0,16.1v-5.31L2.968,10.6c.543-3.259-.7-7.087,2.759-9.369C8.5-.6,11.64.206,14.781.042V5.221c-1.568.385-3.423.368-4.52,1.271-.749.615-.442,2.517-.649,4.2h5.257a41.033,41.033,0,0,1-.425,4.382,1.871,1.871,0,0,1-1.3,1.086,19.887,19.887,0,0,1-3.231.051V32.3Z" transform="translate(0 -0.002)" fill="#fff"/>
    </g>
  </g>
</svg>
