<?xml version="1.0"?>
<svg xmlns="http://www.w3.org/2000/svg" id="Layer_1" data-name="Layer 1" viewBox="0 0 128 128" width="512" height="512"><title>MENTHOL LEAVES</title><path d="M71.228,36.782a1.25,1.25,0,0,0,1.959-1.554l-.266-.335a1.25,1.25,0,0,0-1.953,1.562Z"/><path d="M94.35,64.823A1.25,1.25,0,0,0,93.1,63.578c-1.3-.01-10.863.045-17.369,2.291a17.819,17.819,0,0,0,6.137-13.447c0-3.45-2.067-8.1-6.145-13.819a1.25,1.25,0,1,0-2.035,1.451c3.716,5.213,5.681,9.49,5.681,12.368A15.384,15.384,0,0,1,65.25,67.731V61.178l8.029-9.855a1.25,1.25,0,1,0-1.937-1.579L65.25,57.22V38.634a1.25,1.25,0,0,0-2.5,0v9.181l-5.209-4.465a1.25,1.25,0,1,0-1.627,1.9l6.835,5.859V67.731A15.384,15.384,0,0,1,48.628,52.422c0-7.384,11.986-20.376,15.372-23.9.918.953,2.464,2.6,4.222,4.631a1.25,1.25,0,0,0,1.891-1.636c-2.877-3.326-5.138-5.577-5.232-5.671a1.25,1.25,0,0,0-1.762,0c-.694.689-16.991,16.985-16.991,26.575a17.82,17.82,0,0,0,6.136,13.446c-6.49-2.239-16.014-2.29-17.369-2.29a1.25,1.25,0,0,0-1.246,1.246c-.006,1.748.081,17.219,4.9,22.035a13.022,13.022,0,0,0,13.787,2.971,1.25,1.25,0,0,0-.883-2.34,10.523,10.523,0,0,1-11.137-2.4c-3.173-3.173-4.042-13.818-4.153-19,5.182.11,15.825.978,19,4.153a10.484,10.484,0,0,1,.826,13.906l-7.9-7.9.475-6.177a1.25,1.25,0,1,0-2.492-.191l-.311,4.041-4.026-4.026a1.25,1.25,0,1,0-1.767,1.768l8.562,8.562-5.757-.587a1.25,1.25,0,1,0-.254,2.486l8.809.9,8.118,8.118a1.25,1.25,0,1,0,1.768-1.768l-3.438-3.437a12.966,12.966,0,0,0-.341-16.9,17.724,17.724,0,0,0,5.319,1.2v31.035a1.25,1.25,0,0,0,2.5,0v-6.82L72,87.7a13.011,13.011,0,0,0,17.454-.839C94.269,82.042,94.355,66.571,94.35,64.823ZM87.685,85.091a10.484,10.484,0,0,1-13.906.826l2.9-2.9,8.808-.9a1.25,1.25,0,1,0-.254-2.486l-5.757.587,8.562-8.562a1.25,1.25,0,1,0-1.767-1.768l-4.026,4.026-.311-4.041a1.25,1.25,0,1,0-2.492.191l.475,6.177L65.25,90.91V70.231a17.722,17.722,0,0,0,5.3-1.2,12.934,12.934,0,0,0-2.633,12.707,1.25,1.25,0,1,0,2.375-.781,10.458,10.458,0,0,1,2.548-10.718c3.173-3.173,13.817-4.042,19-4.153C91.727,71.273,90.858,81.918,87.685,85.091Z"/></svg>
