<svg xmlns="http://www.w3.org/2000/svg" width="37.569" height="32.178" viewBox="0 0 37.569 32.178">
  <g id="Layer_2" data-name="Layer 2" transform="translate(0 -0.101)">
    <g id="Layer_1" data-name="Layer 1" transform="translate(0 0.101)">
      <path id="Path_42" data-name="Path 42" d="M0,29.208l10.063-2.946c-.017-.292-.032-.584-.047-.876C7,24.535,4.443,23.171,3.353,19.943l2.539-.552C2.448,17.577.42,15.264.271,11.533l3.2.891C.554,9.092-.787,5.832,1.369,1.649,5.91,6.486,11.18,9.631,17.981,9.876c-.316-3.8.77-6.8,4-8.664s6.229-1.19,9.417.616c1.249.7,3.375-.147,5.326-.3L34.574,4.8l2.995-.444c-3.754,2.26-3.081,6.18-3.882,9.566C29.24,32.777,9.881,35.57,0,29.208Z" transform="translate(0 -0.101)" fill="#fff"/>
    </g>
  </g>
</svg>
