<svg xmlns="http://www.w3.org/2000/svg" width="32.795" height="32.778" viewBox="0 0 32.795 32.778">
  <g id="whatsapp" transform="translate(0 -0.134)">
    <path id="Path_43" data-name="Path 43" d="M16.389.134A16.388,16.388,0,0,0,2.6,25.366L.046,31.981a.683.683,0,0,0,.638.929.664.664,0,0,0,.229-.04l6.828-2.438A16.388,16.388,0,1,0,16.389.134Z" transform="translate(0 0)" fill="#fff"/>
    <path id="Path_44" data-name="Path 44" d="M144.019,139.13s-1.673-.819-2.72-1.366c-1.185-.61-2.578.533-3.234,1.183a7.445,7.445,0,0,1-4.481-4.481c.65-.657,1.79-2.048,1.183-3.234-.539-1.049-1.366-2.72-1.366-2.722a.683.683,0,0,0-.609-.376h-1.366a4.115,4.115,0,0,0-3.414,4.1c0,2.144,2.566,6.263,4.3,7.995s5.849,4.3,7.995,4.3a4.115,4.115,0,0,0,4.1-3.414v-1.366A.683.683,0,0,0,144.019,139.13Z" transform="translate(-119.817 -119.807)" fill="#707070"/>
  </g>
</svg>
